<svg width="150" height="12" viewBox="0 0 150 12" fill="none" xmlns="http://www.w3.org/2000/svg">
<path d="M6.01025 5.79346C6.01025 6.34131 5.85449 6.76025 5.54297 7.05029C5.23503 7.33675 4.79818 7.47998 4.23242 7.47998C3.67025 7.47998 3.21908 7.29199 2.87891 6.91602C2.54232 6.53646 2.37402 6.02083 2.37402 5.36914V4.77832C2.37402 4.14811 2.54411 3.64502 2.88428 3.26904C3.22803 2.88949 3.67741 2.69971 4.23242 2.69971C4.80534 2.69971 5.24577 2.84652 5.55371 3.14014C5.86165 3.43376 6.01562 3.84733 6.01562 4.38086H5.23145C5.23145 4.02637 5.14551 3.77393 4.97363 3.62354C4.80534 3.46956 4.55827 3.39258 4.23242 3.39258C3.89583 3.39258 3.63086 3.51611 3.4375 3.76318C3.24414 4.01025 3.14746 4.354 3.14746 4.79443V5.40137C3.14746 5.83105 3.24414 6.16943 3.4375 6.4165C3.63086 6.66357 3.89583 6.78711 4.23242 6.78711C4.56185 6.78711 4.80892 6.71191 4.97363 6.56152C5.14193 6.41113 5.22607 6.15511 5.22607 5.79346H6.01025ZM1.10645 5.08447C1.10645 5.70036 1.24967 6.27148 1.53613 6.79785C1.82259 7.32064 2.2111 7.73063 2.70166 8.02783C3.1958 8.32503 3.72933 8.47363 4.30225 8.47363C4.87516 8.47363 5.4069 8.32503 5.89746 8.02783C6.38802 7.73063 6.77653 7.32064 7.06299 6.79785C7.34945 6.27148 7.49268 5.70036 7.49268 5.08447C7.49268 4.47575 7.35124 3.91178 7.06836 3.39258C6.78548 2.87337 6.39697 2.46517 5.90283 2.16797C5.41227 1.86719 4.87874 1.7168 4.30225 1.7168C3.72933 1.7168 3.1958 1.8654 2.70166 2.1626C2.20752 2.45622 1.81722 2.86442 1.53076 3.38721C1.24788 3.90999 1.10645 4.47575 1.10645 5.08447ZM0.48877 5.08447C0.48877 4.36117 0.655273 3.68978 0.988281 3.07031C1.32487 2.45085 1.78857 1.96387 2.37939 1.60938C2.9738 1.2513 3.61475 1.07227 4.30225 1.07227C4.98975 1.07227 5.62891 1.2513 6.21973 1.60938C6.81055 1.96387 7.27246 2.45085 7.60547 3.07031C7.94206 3.68978 8.11035 4.36117 8.11035 5.08447C8.11035 5.78988 7.94922 6.45052 7.62695 7.06641C7.30469 7.68229 6.84635 8.17822 6.25195 8.5542C5.66113 8.9266 5.01123 9.11279 4.30225 9.11279C3.59684 9.11279 2.94694 8.92839 2.35254 8.55957C1.76172 8.18717 1.30339 7.69303 0.977539 7.07715C0.651693 6.46126 0.48877 5.79704 0.48877 5.08447ZM17.1499 9H12.0259V8.28564L14.7329 5.27783C15.134 4.82308 15.4097 4.45426 15.5601 4.17139C15.714 3.88493 15.791 3.58952 15.791 3.28516C15.791 2.87695 15.6675 2.54215 15.4204 2.28076C15.1733 2.01937 14.8439 1.88867 14.4321 1.88867C13.938 1.88867 13.5531 2.03011 13.2773 2.31299C13.0052 2.59229 12.8691 2.98258 12.8691 3.48389H11.8755C11.8755 2.76416 12.1064 2.18229 12.5684 1.73828C13.0339 1.29427 13.6551 1.07227 14.4321 1.07227C15.159 1.07227 15.7337 1.26383 16.1562 1.64697C16.5788 2.02653 16.79 2.5332 16.79 3.16699C16.79 3.93685 16.2995 4.85352 15.3184 5.91699L13.2236 8.18896H17.1499V9ZM23.1064 5.66455C23.1064 6.82829 22.9077 7.69303 22.5103 8.25879C22.1128 8.82454 21.4915 9.10742 20.6465 9.10742C19.8122 9.10742 19.1945 8.83171 18.7935 8.28027C18.3924 7.72526 18.1847 6.89811 18.1704 5.79883V4.47217C18.1704 3.32275 18.3691 2.46875 18.7666 1.91016C19.1641 1.35156 19.7871 1.07227 20.6357 1.07227C21.4772 1.07227 22.0967 1.34261 22.4941 1.8833C22.8916 2.42041 23.0957 3.25114 23.1064 4.37549V5.66455ZM22.1128 4.30566C22.1128 3.46419 21.9946 2.85189 21.7583 2.46875C21.522 2.08203 21.1478 1.88867 20.6357 1.88867C20.1273 1.88867 19.7567 2.08024 19.5239 2.46338C19.2912 2.84652 19.1712 3.43555 19.1641 4.23047V5.82031C19.1641 6.66536 19.2858 7.2902 19.5293 7.69482C19.7764 8.09587 20.1488 8.29639 20.6465 8.29639C21.137 8.29639 21.5005 8.10661 21.7368 7.72705C21.9767 7.34749 22.1021 6.74951 22.1128 5.93311V4.30566ZM27.645 9H26.646V2.37744L24.6426 3.11328V2.21094L27.4893 1.14209H27.645V9ZM35.605 1.73828L32.3662 9H31.3242L34.5522 1.99609H30.3198V1.17969H35.605V1.73828ZM45.2246 1.17969V6.49707C45.221 7.2347 44.9883 7.83805 44.5264 8.30713C44.068 8.7762 43.445 9.03939 42.6572 9.09668L42.3833 9.10742C41.5275 9.10742 40.8454 8.87646 40.3369 8.41455C39.8285 7.95264 39.5706 7.31706 39.5635 6.50781V1.17969H40.584V6.47559C40.584 7.04134 40.7397 7.48177 41.0513 7.79688C41.3628 8.1084 41.8068 8.26416 42.3833 8.26416C42.967 8.26416 43.4128 8.1084 43.7207 7.79688C44.0322 7.48535 44.188 7.04671 44.188 6.48096V1.17969H45.2246ZM51.6162 6.15869C51.6162 7.04671 51.4121 7.76107 51.0039 8.30176C50.5957 8.83887 50.0479 9.10742 49.3604 9.10742C48.6263 9.10742 48.0588 8.84782 47.6577 8.32861L47.6094 9H46.6963V0.75H47.6899V3.82764C48.091 3.32992 48.6442 3.08105 49.3496 3.08105C50.055 3.08105 50.6082 3.34782 51.0093 3.88135C51.4139 4.41488 51.6162 5.14535 51.6162 6.07275V6.15869ZM50.6226 6.0459C50.6226 5.36914 50.4919 4.84635 50.2305 4.47754C49.9691 4.10872 49.5931 3.92432 49.1025 3.92432C48.4473 3.92432 47.9764 4.22868 47.6899 4.8374V7.35107C47.9943 7.9598 48.4688 8.26416 49.1133 8.26416C49.5895 8.26416 49.9601 8.07975 50.2251 7.71094C50.4901 7.34212 50.6226 6.78711 50.6226 6.0459ZM55.2847 9.10742C54.4969 9.10742 53.856 8.84961 53.3618 8.33398C52.8677 7.81478 52.6206 7.12191 52.6206 6.25537V6.07275C52.6206 5.49626 52.7298 4.98242 52.9482 4.53125C53.1702 4.0765 53.4782 3.72201 53.8721 3.46777C54.2695 3.20996 54.6992 3.08105 55.1611 3.08105C55.9167 3.08105 56.5039 3.32992 56.9229 3.82764C57.3418 4.32536 57.5513 5.03792 57.5513 5.96533V6.37891H53.6143C53.6286 6.95182 53.7951 7.41553 54.1138 7.77002C54.436 8.12093 54.8442 8.29639 55.3384 8.29639C55.6893 8.29639 55.9865 8.22477 56.23 8.08154C56.4735 7.93831 56.6865 7.74854 56.8691 7.51221L57.4761 7.98486C56.9891 8.73324 56.2586 9.10742 55.2847 9.10742ZM55.1611 3.89746C54.7601 3.89746 54.4235 4.04427 54.1514 4.33789C53.8792 4.62793 53.7109 5.03613 53.6465 5.5625H56.5576V5.4873C56.529 4.98242 56.3929 4.59212 56.1494 4.31641C55.9059 4.03711 55.5765 3.89746 55.1611 3.89746ZM61.5151 4.08008C61.3647 4.05501 61.2018 4.04248 61.0264 4.04248C60.3747 4.04248 59.9325 4.31999 59.6997 4.875V9H58.7061V3.18848H59.6729L59.689 3.85986C60.0148 3.34066 60.4767 3.08105 61.0747 3.08105C61.2681 3.08105 61.4149 3.10612 61.5151 3.15625V4.08008ZM70.5063 2.02832H67.9927V9H66.9668V2.02832H64.4585V1.17969H70.5063V2.02832ZM73.3853 9.10742C72.5975 9.10742 71.9565 8.84961 71.4624 8.33398C70.9683 7.81478 70.7212 7.12191 70.7212 6.25537V6.07275C70.7212 5.49626 70.8304 4.98242 71.0488 4.53125C71.2708 4.0765 71.5788 3.72201 71.9727 3.46777C72.3701 3.20996 72.7998 3.08105 73.2617 3.08105C74.0173 3.08105 74.6045 3.32992 75.0234 3.82764C75.4424 4.32536 75.6519 5.03792 75.6519 5.96533V6.37891H71.7148C71.7292 6.95182 71.8957 7.41553 72.2144 7.77002C72.5366 8.12093 72.9448 8.29639 73.439 8.29639C73.7899 8.29639 74.0871 8.22477 74.3306 8.08154C74.5741 7.93831 74.7871 7.74854 74.9697 7.51221L75.5767 7.98486C75.0897 8.73324 74.3592 9.10742 73.3853 9.10742ZM73.2617 3.89746C72.8607 3.89746 72.5241 4.04427 72.252 4.33789C71.9798 4.62793 71.8115 5.03613 71.7471 5.5625H74.6582V5.4873C74.6296 4.98242 74.4935 4.59212 74.25 4.31641C74.0065 4.03711 73.6771 3.89746 73.2617 3.89746ZM79.1377 8.29639C79.4922 8.29639 79.8019 8.18896 80.0669 7.97412C80.3319 7.75928 80.4787 7.49072 80.5073 7.16846H81.4473C81.4294 7.50146 81.3148 7.81836 81.1035 8.11914C80.8923 8.41992 80.6094 8.65983 80.2549 8.83887C79.904 9.0179 79.5316 9.10742 79.1377 9.10742C78.3464 9.10742 77.7161 8.84424 77.2471 8.31787C76.7816 7.78792 76.5488 7.06462 76.5488 6.14795V5.98145C76.5488 5.41569 76.6527 4.9126 76.8604 4.47217C77.068 4.03174 77.3652 3.68978 77.752 3.44629C78.1423 3.2028 78.6024 3.08105 79.1323 3.08105C79.784 3.08105 80.3247 3.2762 80.7544 3.6665C81.1877 4.0568 81.4186 4.56348 81.4473 5.18652H80.5073C80.4787 4.81055 80.3354 4.5026 80.0776 4.2627C79.8234 4.01921 79.5083 3.89746 79.1323 3.89746C78.6274 3.89746 78.2354 4.08008 77.9561 4.44531C77.6803 4.80697 77.5425 5.33154 77.5425 6.01904V6.20703C77.5425 6.87663 77.6803 7.39225 77.9561 7.75391C78.2318 8.11556 78.6257 8.29639 79.1377 8.29639ZM83.5581 3.89209C83.9985 3.3514 84.5715 3.08105 85.2769 3.08105C86.505 3.08105 87.1245 3.77393 87.1353 5.15967V9H86.1416V5.1543C86.138 4.73535 86.0413 4.42562 85.8516 4.2251C85.6654 4.02458 85.3735 3.92432 84.9761 3.92432C84.6538 3.92432 84.3709 4.01025 84.1274 4.18213C83.884 4.354 83.6942 4.57959 83.5581 4.85889V9H82.5645V0.75H83.5581V3.89209ZM89.563 3.18848L89.5952 3.91895C90.0392 3.36035 90.6193 3.08105 91.3354 3.08105C92.5636 3.08105 93.1831 3.77393 93.1938 5.15967V9H92.2002V5.1543C92.1966 4.73535 92.0999 4.42562 91.9102 4.2251C91.724 4.02458 91.4321 3.92432 91.0347 3.92432C90.7124 3.92432 90.4295 4.01025 90.186 4.18213C89.9425 4.354 89.7528 4.57959 89.6167 4.85889V9H88.623V3.18848H89.563ZM94.4292 6.04053C94.4292 5.47119 94.5402 4.95915 94.7622 4.50439C94.9878 4.04964 95.2993 3.69873 95.6968 3.45166C96.0978 3.20459 96.5544 3.08105 97.0664 3.08105C97.8577 3.08105 98.4969 3.35498 98.9839 3.90283C99.4744 4.45068 99.7197 5.17936 99.7197 6.08887V6.15869C99.7197 6.72445 99.6105 7.23291 99.3921 7.68408C99.1772 8.13167 98.8675 8.48079 98.4629 8.73145C98.0618 8.9821 97.5999 9.10742 97.0771 9.10742C96.2894 9.10742 95.6502 8.8335 95.1597 8.28564C94.6727 7.73779 94.4292 7.0127 94.4292 6.11035V6.04053ZM95.4282 6.15869C95.4282 6.80322 95.5768 7.32064 95.874 7.71094C96.1748 8.10124 96.5758 8.29639 97.0771 8.29639C97.582 8.29639 97.9831 8.09945 98.2803 7.70557C98.5775 7.30811 98.7261 6.75309 98.7261 6.04053C98.7261 5.40316 98.5739 4.88753 98.2695 4.49365C97.9688 4.09619 97.5677 3.89746 97.0664 3.89746C96.5758 3.89746 96.1802 4.09261 95.8794 4.48291C95.5786 4.87321 95.4282 5.4318 95.4282 6.15869ZM102.045 9H101.052V0.75H102.045V9ZM103.377 6.04053C103.377 5.47119 103.488 4.95915 103.71 4.50439C103.936 4.04964 104.248 3.69873 104.645 3.45166C105.046 3.20459 105.503 3.08105 106.015 3.08105C106.806 3.08105 107.445 3.35498 107.932 3.90283C108.423 4.45068 108.668 5.17936 108.668 6.08887V6.15869C108.668 6.72445 108.559 7.23291 108.34 7.68408C108.125 8.13167 107.816 8.48079 107.411 8.73145C107.01 8.9821 106.548 9.10742 106.025 9.10742C105.238 9.10742 104.598 8.8335 104.108 8.28564C103.621 7.73779 103.377 7.0127 103.377 6.11035V6.04053ZM104.376 6.15869C104.376 6.80322 104.525 7.32064 104.822 7.71094C105.123 8.10124 105.524 8.29639 106.025 8.29639C106.53 8.29639 106.931 8.09945 107.229 7.70557C107.526 7.30811 107.674 6.75309 107.674 6.04053C107.674 5.40316 107.522 4.88753 107.218 4.49365C106.917 4.09619 106.516 3.89746 106.015 3.89746C105.524 3.89746 105.128 4.09261 104.828 4.48291C104.527 4.87321 104.376 5.4318 104.376 6.15869ZM109.678 6.0459C109.678 5.13997 109.887 4.42025 110.306 3.88672C110.725 3.34961 111.28 3.08105 111.971 3.08105C112.68 3.08105 113.233 3.33171 113.631 3.83301L113.679 3.18848H114.587V8.86035C114.587 9.6123 114.363 10.2049 113.916 10.6382C113.472 11.0715 112.874 11.2881 112.122 11.2881C111.703 11.2881 111.293 11.1986 110.892 11.0195C110.491 10.8405 110.184 10.5952 109.973 10.2837L110.489 9.6875C110.915 10.2139 111.436 10.4771 112.052 10.4771C112.535 10.4771 112.911 10.341 113.18 10.0688C113.452 9.79671 113.588 9.41357 113.588 8.91943V8.41992C113.19 8.87826 112.648 9.10742 111.96 9.10742C111.28 9.10742 110.729 8.8335 110.306 8.28564C109.887 7.73779 109.678 6.99121 109.678 6.0459ZM110.677 6.15869C110.677 6.81396 110.811 7.32959 111.08 7.70557C111.348 8.07796 111.724 8.26416 112.208 8.26416C112.834 8.26416 113.294 7.97949 113.588 7.41016V4.75684C113.284 4.20182 112.827 3.92432 112.218 3.92432C111.735 3.92432 111.357 4.1123 111.085 4.48828C110.813 4.86426 110.677 5.42106 110.677 6.15869ZM117.17 9H116.177V3.18848H117.17V9ZM116.096 1.64697C116.096 1.48584 116.145 1.34977 116.241 1.23877C116.341 1.12777 116.488 1.07227 116.682 1.07227C116.875 1.07227 117.022 1.12777 117.122 1.23877C117.222 1.34977 117.272 1.48584 117.272 1.64697C117.272 1.80811 117.222 1.94238 117.122 2.0498C117.022 2.15723 116.875 2.21094 116.682 2.21094C116.488 2.21094 116.341 2.15723 116.241 2.0498C116.145 1.94238 116.096 1.80811 116.096 1.64697ZM121.177 9.10742C120.389 9.10742 119.749 8.84961 119.254 8.33398C118.76 7.81478 118.513 7.12191 118.513 6.25537V6.07275C118.513 5.49626 118.622 4.98242 118.841 4.53125C119.063 4.0765 119.371 3.72201 119.765 3.46777C120.162 3.20996 120.592 3.08105 121.054 3.08105C121.809 3.08105 122.396 3.32992 122.815 3.82764C123.234 4.32536 123.444 5.03792 123.444 5.96533V6.37891H119.507C119.521 6.95182 119.688 7.41553 120.006 7.77002C120.329 8.12093 120.737 8.29639 121.231 8.29639C121.582 8.29639 121.879 8.22477 122.123 8.08154C122.366 7.93831 122.579 7.74854 122.762 7.51221L123.369 7.98486C122.882 8.73324 122.151 9.10742 121.177 9.10742ZM121.054 3.89746C120.653 3.89746 120.316 4.04427 120.044 4.33789C119.772 4.62793 119.604 5.03613 119.539 5.5625H122.45V5.4873C122.422 4.98242 122.285 4.59212 122.042 4.31641C121.799 4.03711 121.469 3.89746 121.054 3.89746ZM127.982 7.4585C127.982 7.18994 127.88 6.98226 127.676 6.83545C127.476 6.68506 127.123 6.55615 126.618 6.44873C126.117 6.34131 125.718 6.2124 125.42 6.06201C125.127 5.91162 124.908 5.73258 124.765 5.5249C124.625 5.31722 124.556 5.07015 124.556 4.78369C124.556 4.30745 124.756 3.90462 125.157 3.5752C125.562 3.24577 126.077 3.08105 126.704 3.08105C127.363 3.08105 127.896 3.25114 128.305 3.59131C128.716 3.93148 128.922 4.36654 128.922 4.89648H127.923C127.923 4.62435 127.807 4.38981 127.574 4.19287C127.345 3.99593 127.055 3.89746 126.704 3.89746C126.342 3.89746 126.06 3.97624 125.855 4.13379C125.651 4.29134 125.549 4.49723 125.549 4.75146C125.549 4.99137 125.644 5.1722 125.834 5.29395C126.024 5.41569 126.366 5.53206 126.86 5.64307C127.358 5.75407 127.76 5.88656 128.068 6.04053C128.376 6.1945 128.604 6.3807 128.75 6.59912C128.901 6.81396 128.976 7.07715 128.976 7.38867C128.976 7.90788 128.768 8.32503 128.353 8.64014C127.938 8.95166 127.399 9.10742 126.736 9.10742C126.271 9.10742 125.859 9.02507 125.501 8.86035C125.143 8.69564 124.862 8.46647 124.658 8.17285C124.457 7.87565 124.357 7.55518 124.357 7.21143H125.351C125.368 7.54443 125.501 7.80941 125.748 8.00635C125.999 8.19971 126.328 8.29639 126.736 8.29639C127.112 8.29639 127.413 8.22119 127.639 8.0708C127.868 7.91683 127.982 7.71273 127.982 7.4585ZM134.261 9H133.23V1.17969H134.261V9ZM136.936 3.18848L136.968 3.91895C137.412 3.36035 137.992 3.08105 138.708 3.08105C139.937 3.08105 140.556 3.77393 140.567 5.15967V9H139.573V5.1543C139.57 4.73535 139.473 4.42562 139.283 4.2251C139.097 4.02458 138.805 3.92432 138.408 3.92432C138.085 3.92432 137.803 4.01025 137.559 4.18213C137.316 4.354 137.126 4.57959 136.99 4.85889V9H135.996V3.18848H136.936ZM144.396 8.29639C144.751 8.29639 145.061 8.18896 145.326 7.97412C145.591 7.75928 145.737 7.49072 145.766 7.16846H146.706C146.688 7.50146 146.574 7.81836 146.362 8.11914C146.151 8.41992 145.868 8.65983 145.514 8.83887C145.163 9.0179 144.79 9.10742 144.396 9.10742C143.605 9.10742 142.975 8.84424 142.506 8.31787C142.04 7.78792 141.808 7.06462 141.808 6.14795V5.98145C141.808 5.41569 141.911 4.9126 142.119 4.47217C142.327 4.03174 142.624 3.68978 143.011 3.44629C143.401 3.2028 143.861 3.08105 144.391 3.08105C145.043 3.08105 145.583 3.2762 146.013 3.6665C146.446 4.0568 146.677 4.56348 146.706 5.18652H145.766C145.737 4.81055 145.594 4.5026 145.336 4.2627C145.082 4.01921 144.767 3.89746 144.391 3.89746C143.886 3.89746 143.494 4.08008 143.215 4.44531C142.939 4.80697 142.801 5.33154 142.801 6.01904V6.20703C142.801 6.87663 142.939 7.39225 143.215 7.75391C143.491 8.11556 143.884 8.29639 144.396 8.29639ZM147.845 8.479C147.845 8.30713 147.895 8.1639 147.995 8.04932C148.099 7.93473 148.253 7.87744 148.457 7.87744C148.661 7.87744 148.815 7.93473 148.919 8.04932C149.026 8.1639 149.08 8.30713 149.08 8.479C149.08 8.64372 149.026 8.78158 148.919 8.89258C148.815 9.00358 148.661 9.05908 148.457 9.05908C148.253 9.05908 148.099 9.00358 147.995 8.89258C147.895 8.78158 147.845 8.64372 147.845 8.479Z" fill="white"/>
</svg>
